<?xml version="1.0" encoding="UTF-8"?>
<svg id="Webbanner_01:_468_x_60_px" data-name="Webbanner 01: 468 x 60 px" xmlns="http://www.w3.org/2000/svg" viewBox="0 0 468 60">
  <defs>
    <style>
      .cls-1 {
        font-size: 9px;
      }

      .cls-1, .cls-2 {
        fill: #f6adc8;
      }

      .cls-1, .cls-3 {
        font-family: Philosopher-Regular, Philosopher;
      }

      .cls-4 {
        letter-spacing: .04em;
      }

      .cls-5 {
        letter-spacing: .05em;
      }

      .cls-6 {
        letter-spacing: .05em;
      }

      .cls-7 {
        letter-spacing: .05em;
      }

      .cls-3 {
        font-size: 16px;
      }

      .cls-3, .cls-8 {
        fill: #ff006e;
      }

      .cls-9 {
        letter-spacing: .06em;
      }

      .cls-10 {
        fill: none;
      }

      .cls-11 {
        letter-spacing: .04em;
      }

      .cls-8 {
        font-family: CooperBlackStd, 'Cooper Std';
        font-size: 11.77px;
      }

      .cls-12 {
        letter-spacing: .05em;
      }

      .cls-13 {
        letter-spacing: .05em;
      }

      .cls-14 {
        letter-spacing: .06em;
      }
    </style>
  </defs>
  <g id="Hintergrund">
    <rect class="cls-10" width="468" height="60"/>
  </g>
  <g id="Grafikelemente">
    <g>
      <path class="cls-2" d="m187,60h-12.81c-3.13-2.34-5.96-5.1-8.35-8.29-6.2-8.23-10.73-20.64-21.87-23.17-11.88-2.7-23.37,6.4-29.88,15.4-3.84,5.31-7.2,11.15-11.49,16.06h-39.29c-1.81-2.87-3.19-5.97-4.63-9.07-1.62-3.49-3.05-7.62-5.89-10.32-9.18-8.77-21.99,3.17-27.68,10.13-2.5,3.04-4.92,6.14-7.32,9.26h-9.15c3.95-6.12,8.1-12.11,12.53-17.74,7.31-9.28,18.62-17.08,31.01-13.89,11.06,2.84,15.08,12.84,19.93,21.92,2.2,4.11,4.9,8.11,9.99,8.38,6.43.34,12-3.47,16.32-7.82,7.8-7.86,13.72-16.89,23.8-22.16,7.92-4.15,17.33-5.98,25.78-2.33,9.21,3.98,14.05,12.94,19.91,20.51,5.02,6.49,11.54,11.23,19.09,13.13Z"/>
      <path class="cls-2" d="m231.08,51.76c7.73-.06,13.62,3.34,18.55,8.24h-47.51c9.77-2.3,18.64-8.17,28.96-8.24Z"/>
      <path class="cls-2" d="m413.26,60h-10.83c-3.24-3.33-7.03-6-11.91-7.33-11.37-3.09-23.06.83-32.73,6.83-.26.16-.52.33-.78.5h-13.37c8.23-6.4,16.93-11.99,27.38-14.58,9.77-2.42,20.47-2.21,29.46,2.74,5.22,2.87,9.19,7.18,12.78,11.84Z"/>
      <path class="cls-2" d="m461.91,47.11c-1.06,4.39-.15,8.61.52,12.89h-9.61c-.15-.94-.31-1.9-.44-2.86-1.78-12.89,5-25.94,15.62-32.81v11.68c-2.91,3.07-5.06,6.84-6.09,11.1Z"/>
      <path class="cls-2" d="m468,43.49v16.51h-.65c-1.38-2.56-2.18-5.37-2.1-8.31.08-3.07,1.06-5.95,2.75-8.2Z"/>
      <path class="cls-2" d="m396.83,60h-10.86c-.58-.05-1.19-.07-1.82-.05-.3,0-.6.02-.9.05h-11.16c4.31-2.88,9.3-4.53,14.71-3.97,3.53.37,7.21,1.72,10.03,3.97Z"/>
      <path class="cls-2" d="m159.63,60h-10.22c-.94-2.54-1.6-5.09-1.94-7.51-.64-4.47.93-11.84-4.16-14.05-5.4-2.34-10.79,2.55-13.95,6.35-4.05,4.87-7.78,10.04-11.51,15.21h-5.27c4.43-6.87,9.01-13.76,14.32-19.81,4.79-5.46,12.76-9.38,19.75-5.47,7.84,4.38,8.42,14.74,11.53,22.21.44,1.05.92,2.07,1.45,3.07Z"/>
      <path class="cls-2" d="m141.64,60h-4.51c.21-1.03.43-2.07.63-3.11.43-2.31,1.37-3.86-.82-5.13-2.04-1.18-2.13-.24-3.53,1.5-1.7,2.09-3.17,4.36-4.44,6.74h-4.16c3.24-7.66,9.11-17.77,14.99-13.34,3.76,2.84,2.26,9.47,1.84,13.34Z"/>
      <path class="cls-2" d="m56.98,60h-5.85c-.46-1.35-.86-2.7-1.2-4.04-.65-2.55-.52-5.96-1.59-8.3-2.38-5.22-8.72.55-11.11,2.62-3.23,2.78-5.99,6.08-8.18,9.72h-3.89c2.02-4.27,4.74-8.14,8.25-11.44,3.41-3.22,9.65-8.84,14.84-6.91,2.31.85,3.21,2.75,3.95,4.95,1.29,3.85,2.1,7.73,3.81,11.45.31.67.63,1.32.97,1.95Z"/>
      <path class="cls-2" d="m47.37,60h-3.73c-.08-.68-.16-1.36-.24-2.04-.23-1.88.13-2.45-1.59-2.85-1.56-.38-2.21.57-3.22,1.61-.96,1-1.73,2.1-2.38,3.28h-3.08c1.67-3.73,6.05-10.84,10.65-8.63,2.27,1.1,2.69,3.92,3.11,6.12.16.84.32,1.68.48,2.51Z"/>
      <path class="cls-2" d="m40.6,12.75c-2.54,5.41-7.01,9.65-11.32,13.65-4.88,4.51-9.65,9.1-14.16,13.99-4.58,4.98-11.02,11.49-15.12,18.62v-7.71c6.01-8.53,13.2-16.42,20.65-23.67,4.01-3.89,8.42-7.46,11.95-11.81,2.1-2.58,5.01-6.58,4.58-10.09-.3-2.44-2.16-4.25-4.15-5.73h7.14c2.2,3.53,2.79,7.71.43,12.75Z"/>
      <path class="cls-2" d="m32.16,5.26c-.7,7.55-10.56,12.61-15.65,17.03-5.84,5.06-11.35,10.47-16.51,16.22v-5.68c1.03-1.13,2.08-2.24,3.15-3.35,5.15-5.34,10.58-10.38,16.31-15.09,2.63-2.16,7.72-5.29,8.28-9.03.3-1.99-1.64-3.77-3.92-5.36h6.71c1.16,1.5,1.82,3.25,1.63,5.26Z"/>
      <path class="cls-2" d="m18.57,6.96C13.29,14.68,6.91,21.71,0,28.07v-5.04c2.82-2.89,5.52-5.9,8.09-9.04,1.94-2.38,8.98-9.03,6.35-12.14-.69-.81-1.81-1.41-3.1-1.85h7.62c1.32,1.85,1.49,4.21-.39,6.96Z"/>
      <path class="cls-2" d="m9.29,7.51c-.07,2.58-2.36,4.46-4.26,5.83-1.61,1.16-3.29,2.2-5.03,3.13v-3.19c1.69-1.04,3.29-2.23,4.6-3.59,2.36-2.45-.51-2.73-2.52-2.7-.7.01-1.39.03-2.08.07v-3.48c4.18-.9,9.4-.55,9.29,3.93Z"/>
    </g>
  </g>
  <g id="Text">
    <text id="Ihr_Markenname" data-name="Ihr Markenname" class="cls-8" transform="translate(33.97 21.19) rotate(-14.79) scale(.95 1)"><tspan x="0" y="0">E</tspan></text>
    <text class="cls-8" transform="translate(46.18 18.81) rotate(12.73) scale(.95 1)"><tspan x="0" y="0">N</tspan></text>
    <text class="cls-8" transform="translate(59.48 23.09) rotate(41.8) scale(.95 1)"><tspan x="0" y="0">T</tspan></text>
    <text class="cls-8" transform="translate(68.29 32.3) rotate(60.59) scale(.95 1)"><tspan x="0" y="0">R</tspan></text>
    <text class="cls-8" transform="translate(76.05 48.85) rotate(23.26) scale(.95 1)"><tspan x="0" y="0">A</tspan></text>
    <text class="cls-8" transform="translate(94.66 45.42) rotate(-48.58) scale(.95 1)"><tspan x="0" y="0">S</tspan></text>
    <text class="cls-8" transform="translate(102.92 35.76) rotate(-47.64) scale(.95 1)"><tspan x="0" y="0">E</tspan></text>
    <text class="cls-8" transform="translate(111.79 26.39) rotate(-35.4) scale(.95 1)"><tspan x="0" y="0">G</tspan></text>
    <text class="cls-8" transform="translate(123.51 18.88) rotate(-17.33) scale(.95 1)"><tspan x="0" y="0">U</tspan></text>
    <text class="cls-8" transform="translate(137.2 15.43) rotate(5.73) scale(.95 1)"><tspan x="0" y="0">R</tspan></text>
    <text class="cls-8" transform="translate(150.42 17.77) rotate(32.37) scale(.95 1)"><tspan x="0" y="0">O</tspan></text>
    <text class="cls-8" transform="translate(161.33 26.12) rotate(48.9) scale(.95 1)"><tspan x="0" y="0">.</tspan></text>
    <text class="cls-8" transform="translate(166.65 32.7) rotate(55.25) scale(.95 1)"><tspan x="0" y="0">C</tspan></text>
    <text class="cls-8" transform="translate(175.17 44.96) rotate(40.85) scale(.95 1)"><tspan x="0" y="0">O</tspan></text>
    <text class="cls-8" transform="translate(188.78 51.71) rotate(48.7) scale(.95 1)"><tspan x="0" y="0">M</tspan></text>
    <text id="Neuer_Onlineshop" data-name="Neuer Onlineshop" class="cls-3" transform="translate(210.49 24.99)"><tspan class="cls-14" x="0" y="0">ENTRA</tspan><tspan class="cls-11" x="54.21" y="0">D</tspan><tspan class="cls-9" x="66.22" y="0">AS AL </tspan><tspan class="cls-13" x="117.76" y="0">M</tspan><tspan class="cls-14" x="132.3" y="0">EJ</tspan><tspan class="cls-5" x="147.84" y="0">O</tspan><tspan class="cls-14" x="160.08" y="0">R PREC</tspan><tspan class="cls-6" x="217.79" y="0">I</tspan><tspan class="cls-4" x="223.2" y="0">O</tspan><tspan class="cls-14" x="235.21" y="0">.</tspan></text>
    <text id="Neuer_Onlineshop-2" data-name="Neuer Onlineshop" class="cls-1" transform="translate(225.37 37.79)"><tspan class="cls-14" x="0" y="0">CO</tspan><tspan class="cls-7" x="13.47" y="0">M</tspan><tspan class="cls-14" x="21.65" y="0">PRA Y REVEN</tspan><tspan class="cls-12" x="81.68" y="0">D</tspan><tspan class="cls-14" x="88.6" y="0">E SEGURO EN ENTRASEGURO</tspan></text>
  </g>
</svg>