<svg fill="#000000" xmlns="http://www.w3.org/2000/svg"  viewBox="0 0 64 64" width="48px" height="48px"><path d="M 20 11 C 16.686 11 14 13.686 14 17 L 14 47 C 14 50.314 16.686 53 20 53 L 48 53 C 49.105 53 50 52.105 50 51 C 50 50.225188 49.556035 49.560676 48.912109 49.228516 L 48.917969 49.224609 C 48.917969 49.224609 47 48.445625 47 46.515625 C 47 44.621625 48.199219 43.845703 48.199219 43.845703 L 48.167969 43.837891 C 49.277417 42.920723 50 41.55158 50 40 L 50 17 C 50 13.686 47.314 11 44 11 L 20 11 z M 22 15 L 44 15 C 45.105 15 46 15.895 46 17 L 46 39 C 46 40.105 45.105 41 44 41 L 22 41 L 22 15 z M 34.017578 20.013672 C 32.066578 20.013672 30.484375 21.757156 30.484375 23.910156 C 30.484375 26.063156 32.067578 27.808594 34.017578 27.808594 C 35.968578 27.808594 37.548828 26.063156 37.548828 23.910156 C 37.548828 21.757156 35.968578 20.013672 34.017578 20.013672 z M 34 29.4375 C 32.284 29.4375 30.542281 29.808234 28.738281 31.115234 C 27.901281 31.721234 26.435547 33.229844 26.435547 34.964844 C 26.435547 35.899844 27.394359 36.011719 27.693359 36.011719 L 40.306641 36.011719 C 40.605641 36.011719 41.564453 35.899844 41.564453 34.964844 C 41.564453 33.229844 40.097719 31.721234 39.261719 31.115234 C 37.457719 29.808234 35.716 29.4375 34 29.4375 z M 20 45 L 43.363281 45 C 43.150753 45.537803 43 46.190793 43 47 C 43 47.805729 43.261883 48.458893 43.626953 49 L 20 49 C 18.895 49 18 48.105 18 47 C 18 45.895 18.895 45 20 45 z"/></svg>