<?xml version="1.0" encoding="UTF-8"?>
<svg id="Quadratisch_01:_250_x_250_px" data-name="Quadratisch 01: 250 x 250 px" xmlns="http://www.w3.org/2000/svg" viewBox="0 0 250 250">
  <defs>
    <style>
      .cls-1 {
        fill: #ff006e;
      }

      .cls-2 {
        fill: #f6adc8;
        stroke: #f2dfbb;
        stroke-miterlimit: 10;
        stroke-width: .97px;
      }

      .cls-3 {
        fill: none;
      }
    </style>
  </defs>
  <g id="Hintergrund-3" data-name="Hintergrund">
    <rect class="cls-3" width="250" height="250"/>
  </g>
  <g id="Grafikelemente-3" data-name="Grafikelemente">
    <path class="cls-3" d="m137.27,203.57c-.84-1.64-3.61-.5-3,1.27,3.97,11.64,3.19,23.87,1.31,35.85-.49,3.12-1.09,6.21-1.71,9.31h10.61c.36-3.89.57-7.8.62-11.7.17-11.98-2.43-24.02-7.83-34.73Zm79.84-60.05c.07,8.72,1.8,18.25,6.62,25.69,4.92,7.59,12.19,12.89,20.36,16.55,1.93.86,3.91,1.64,5.91,2.4v-17.63c-4.21-3.7-7.68-8.04-9.47-13.83-4.38-14.21-.47-29.25,1.6-43.48,2.49-17.09,2.6-35.01-7.82-49.74-8.67-12.23-22.34-19.78-36.82-22.96-17.48-3.85-34.7-1.42-51.89,2.74-8.96,2.18-17.87,4.63-26.94,6.34-5.71,1.09-14.24,3.59-19.47.06-1.2-.8-2.42-2.29-3.27-4.04-1.18-2.43-1.79-5.48-2.34-8.26-1.27-6.37-1.78-12.95-3.88-19.13-2.78-8.18-8.07-14.2-14.76-18.23h-39.59c5.98,9.8,7.23,22.51,5.15,33.7-3.36,18.07-13.72,34.23-22.41,50.12-5.17,9.45-11.17,19.03-16,29,.45-6.61,1.96-13.28,4.56-19.4,5.14-12.08,13.05-22.79,19.07-34.42,9.41-18.19,14.33-40.2,6.79-59h-6.59c2.85,9.02,2.82,18.67-1.45,27.6-5.38,11.26-14.6,19.76-22.22,29.38-.76.96-1.51,1.92-2.25,2.88v75.64c.43-2.65,1.07-5.3,1.93-7.94,2.81-8.66,7.28-16.62,11.62-24.58,4.75-8.7,9.5-17.41,14.25-26.11,8.61-15.8,18.02-32.51,18.69-50.95.31-8.79-1.69-17.66-6.04-25.15,1.79,2.01,3.37,4.23,4.63,6.61,7.89,14.8,2.43,33.92-3.75,48.34-12.47,29.08-36.67,60.75-25.41,94.25,7.2,21.4,25.61,30.75,45.77,33.8-4.86,1.64-9.81,2.92-14.95,3.45-14.42,1.47-28.03-5.15-37.21-16.16-5.16-6.2-8.29-13.17-9.53-20.5v17.89c.51.88,1.05,1.75,1.62,2.6,7.22,10.79,18.35,19.24,31.09,22.21,11.18,2.61,22.2.74,32.89-2.5-7.76,3.3-15.34,7.13-23.53,9.42-15.06,4.22-36.16,1.28-40.49-16.64-.21-.9-.83-1.47-1.58-1.72v13.91c4.55,7.67,12.66,12.98,21.85,14.66,17.67,3.23,33.78-4.63,49.72-11.04,14.22-5.72,36.27-9,42.43,9.72,2.77,8.42,1.87,17.33-1.13,25.52-1.91,5.21-4.29,10.18-5.38,15.41h17c-.11-2.21.26-4.51.58-6.61,1.21-7.72,2.62-14.85,1.64-22.71-.92-7.34-3.41-14.33-7.1-20.73-6.37-11.05-18.01-15.81-30.17-15.42.63-.05,1.26-.08,1.89-.14,12.87-1.14,25.7-3.05,38.59-4.08,10.52,3.31,20.05,9.37,27.51,17.58-1.31.03-2.5.78-2.79,2.54-2.94,17.62,2.68,33.99,10.18,49.57h7.86c-4.95-15.26-9.21-30.75-10.91-46.74,3.24,4.5,5.87,9.45,7.62,14.68,2.65,7.92,2.36,16.57,5.69,24.25,1.37,3.15,3.25,5.72,5.51,7.81h20.55c-2.14-.77-4.22-1.66-6.21-2.72-6.49-3.44-9.48-8.75-10.68-15.88-2.4-14.24-7.02-26.58-16.67-37.59-4.89-5.58-10.52-10.33-16.65-14.16,13.61.43,28.08,3.04,38.21,12.13,2.89,2.59,5.39,5.65,6.92,9.25,1.62,3.8,1.39,7.7,1.63,11.73.57,9.41,1.84,18.83,9.23,25.52,2.64,2.38,5.55,4.19,8.62,5.5-1.73-.48-3.44-1.05-5.11-1.76-9.58-4.1-16.73-12.15-18.88-22.4-2.01-9.57-2.01-19.39-8.57-27.28-1.03-1.24-2.98.35-2.19,1.69,5.57,9.53,2.25,21.47,5.18,31.85,2.57,9.11,8.95,16.67,16.8,21.78,1.33.87,2.69,1.65,4.09,2.34h40.65c.83-.36,1.66-.73,2.49-1.11v-5.61c-.76.08-1.51.19-2.25.32-2.73.47-5.52.89-8.33,1.22,3.7-1.05,7.28-2.62,10.58-4.64v-13.51c-11.39,2.08-29.11,6.34-33.06-7.65-2.17-7.7-1.78-15.28-5.83-22.53-3.72-6.64-9.8-11.9-16.24-15.81-22.53-13.65-47.68-13.56-72.76-11.47-9.38-1.24-19.05-.6-28.49,2.19-.59.18-1.18.37-1.76.56-12.75.89-26.14.85-37.98-3.98-13.17-5.37-21.3-16.45-22.76-30.59-3.55-34.43,26.23-60.83,30.46-93.77,1.92-14.99-.28-31.51-10.08-43.24,10.85.91,23.67,3.98,26.25,14.55,3.04,12.5-2.32,25.47.6,38.09,4.18,18.14,23.08,22.49,39.24,20.27,17.68-2.44,34.75-7.9,52.35-10.82,12.45-2.06,25.49-1.91,36.74,3.83,4.76,2.42,9.12,5.57,12.15,10.06,4.19,6.23,4.6,14,4.18,21.28-.9,15.43-6.02,30.33-5.9,45.88Zm-134.76,41.4c1.3-.04,2.58-.1,3.87-.17-.17.02-.33.02-.5.04-2,.24-3.96.6-5.88,1.05.84-.31,1.67-.62,2.51-.92ZM20.88,0h-3.68c.29,2.27.41,4.55.21,6.83-.56,6.55-4.33,9.84-10.05,12.28-2.54,1.08-5,2.29-7.36,3.65v22.54c1.37-1.86,2.77-3.69,4.2-5.5,5.5-6.95,12.09-13.47,14.93-22.09,2.09-6.33,2.48-11.92,1.75-17.71ZM7.11,0c-.32.58-.68,1.16-1.09,1.74-1.7,2.37-3.78,4.48-6.02,6.43v6.01c5.27-2.76,10.09-6.03,13.35-11.31.56-.91,1.07-1.87,1.51-2.87h-7.75Z"/>
    <path class="cls-3" d="m250,73.63v23.62c-.39-5.28-1.12-10.56-2.32-15.87-5.23-23.1-19.88-43.49-44.67-46.99-23.41-3.3-47.44.92-70.98-1.21-10.65-.96-21.54-3.53-30.36-9.86-8.04-5.76-13-14.13-16.09-23.32h17.96c3.38,5.04,7.9,9.16,13.75,11.67,9.22,3.95,20.01,4.39,29.88,4.91,24.34,1.29,48.38,7.4,70.66,17.37,16.38,7.33,27.27,22.75,32.17,39.68Z"/>
    <path class="cls-3" d="m250,43.08v13.81c-5.15-11.99-12.79-23.42-24.38-29.69-15.61-8.45-34.95-7.37-51.86-11.35-12.18-2.87-24.41-8.13-34.56-15.85h27.85c2.21.8,4.45,1.5,6.75,2.11,8.73,2.31,17.76,3.36,26.58,5.33,14.77,3.3,27.53,11.34,38.38,21.77,4.26,4.08,8.1,8.77,11.24,13.87Z"/>
    <path class="cls-3" d="m250,17.38v6.94c-1.58-1.55-3.55-2.71-5.81-3.37-3.76-1.09-7.69-1.09-11.33-2.66-6.15-2.64-11.03-8.34-11.31-15.22-.04-1.1,0-2.12.12-3.07h7.28c-1.28,3.66.58,7.6,3.49,10.01,5.09,4.2,12.17,3.77,17.56,7.37Z"/>
    <path class="cls-3" d="m221.61,193.15c.69,2.35,1.51,4.67,2.34,6.98,1.61,4.47,3.57,9.14,7.1,12.46,4.55,4.29,10.91,4.75,16.86,4.66.7-.01,1.39-.02,2.09-.05v6.96c-8.09.54-16.14-.11-22.38-5.25-4.09-3.38-6.71-8.05-8.68-12.91-2.07-5.13-4.33-11.56-4.03-17.15.22-4.27,3.07-8.76,7.77-8.95,4.51-.19,6.27,3.66,7.21,7.39,1.72,6.78,6.45,12.37,13.5,13.97,2.3.52,4.5.5,6.61.11v4.82c-2.65.3-5.34.14-7.84-.47-4.11-.99-7.94-3.3-10.84-6.36-1.32-1.39-2.35-2.99-3.19-4.71s-1.65-3.44-2.31-5.19c-.25-.67-.25-1.42-.55-2.08s-.79-1.16-1.42-1.45c-.8-.36-1.78-.28-2.48.24-.89.66-.89,1.57-.79,2.56.14,1.29.49,2.56.86,3.81.06.2.12.41.18.61Z"/>
    <path class="cls-3" d="m212.39,154.66c-2.13-5.84-4.75-11.21-8.64-16.08-1.26-1.58-3.26.44-2.58,1.99,2.81,6.43,5.85,12.74,7.71,19.54.79,2.88,2.34,6.99.59,9.81-2.16,3.48-6.14.84-8.71-1.19-1.17-2.13-7.59-1.15-4.86,2.39,2.9,3.75,6.55,7.65,11.71,7.55,4.41-.08,7.79-3.38,8.24-7.66.56-5.32-1.69-11.46-3.47-16.35Z"/>
    <path class="cls-3" d="m101.1,241.07c-1.66,3.48-4.16,6.2-6.69,8.93h-29.18c.44-1.09.96-2.15,1.55-3.18,3.26-5.69,8.23-9.87,12.76-14.48,2.28-2.32,7.8-6.89,6.56-10.76-2-6.2-11.61-3.68-15.92-2.57-6.82,1.77-13.57,3.76-20.48,5.13-16.76,3.34-35.47,3.09-49.7-5.7v-8.56c7.87,4.91,17.42,7.26,26.62,7.55,16.2.49,31.03-5.24,46.77-7.82,11.49-1.88,25.06-.91,29.74,11.8,2.46,6.67.95,13.44-2.03,19.66Z"/>
    <path class="cls-3" d="m46.31,250h-13.33c.23-.39.47-.77.73-1.14,1.33-1.9,3.05-3.43,4.54-5.19,1.33-1.57,2.52-2.57.82-3.45-1.53-.8-5.64.03-7.4.18-2.59.24-5.16.67-7.72,1.14-4.67.85-9.3,1.9-13.98,2.64-3.4.53-6.71.79-9.97.7v-9.14c6.08-.57,12.17-2.08,17.96-3.3,7.77-1.64,20.05-5.23,27.54-1.15,7.67,4.18,5.01,13.09.81,18.71Z"/>
    <circle class="cls-1" cx="125" cy="125" r="100.07" transform="translate(-25.38 217.94) rotate(-76.72)"/>
    <circle class="cls-2" cx="125" cy="125" r="91.05"/>
  </g>
  <g id="Text-3" data-name="Text">
    <g id="Hülle">
      <g id="Name">
        <path class="cls-1" d="m79.28,195.33c-2.01-1.45-4.69-3.67-6.05-4.89-1.36-1.23-.59-1.27,2.22-.36,2.81.9,5.42,2.83,6.16,4.61.74,1.78-.32,2.09-2.33.64Z"/>
        <path class="cls-1" d="m93.04,167.34c3.35-2.23,7.45.52,8.97.45,1.29-.06,1.72-.48,2.75-.43,2.56.11,5.14,4.68,5.19,11.34.02,3.42-1.3,5.81-4.33,5.51-5.28-.53-5.75-11.58-12.41-8.72-2.88,1.24-3.51,5.29-3.12,7.82,1.04,6.79,4.57,12.47,9.99,13.09,4.92.56,5.97-3.16,7.33-2.94,1.28.21,1.86,2.29,1.87,3.71.01,2.5-1.73,7.32-3.69,6.93-1.33-.26-3.93,2.46-7.83.89-6.78-2.74-14.58-10.39-16.27-16.97-1.71-6.63,5.99-16.97,11.54-20.68Z"/>
        <path class="cls-1" d="m111.58,187.74c-.04-7.62,4.71-18.32,13.94-12.93,6.02,3.52,20.73,8.82,18.65,18.48-1.73,8.02-10.9,15.27-18.32,15.71-10.1.6-14.21-12.59-14.26-21.25Zm12.52-6.24c-1.82-1.04-2.98,1.65-2.89,4.15.2,5.46,1.85,15.67,6.63,16.89,1.86.47,3.64-2.18,3.62-4.4-.04-5.71-2.6-13.93-7.36-16.65Z"/>
        <path class="cls-1" d="m155.42,191.37c-.04-.43-.04-1.49-.68-1.17-1.09.55-2.43,5.74-2.88,7.04-1.47,4.21,1.42,1.25.62,3.32-.85,2.19-4.57,3.76-5.94,4.25-1.23.44-4.45,1.34-3.83-.54.68-2.06,2.38-.98,3.71-4.17,1.37-3.26,2.89-6.99,4.34-13.06.6-2.51.71-3.79.42-4.61-.26-.74-2.92-.24-2.63-2.02.4-2.48,5.15-4.48,8.17-6.18,4.43-2.49,3.84-1.6,4.35.13.59,2,1.23,7.97,2.71,7.53,1.04-.31,3.95-6.65,6.26-10.29,3.28-5.17,4.8-7.54,11.58-6.4,2.26.38,6.13,2.32,4.97,4.58-.74,1.43-2.55,1.14-3.58,2.34-.84.99-3.51,5.42-4.5,7.05-.33.54-2.6,4.45-4.83,7.41-1.76,2.33.42.73-.84,1.95-1.87,1.82-5.68,4.96-6.98,5.93-1.22.9-5.49,3.88-4.41,1.3.59-1.41,2.2-2.51,3-3.94.43-.77,4-8.36,2.62-7.8-1.22.5-3.63,4.93-5.21,7.53-1.43,2.35-4.39,7.63-5.39,8.03-.5.2-.71.51-.84-3.91-.05-1.7-.09-2.57-.23-4.32Z"/>
      </g>
    </g>
    <g id="Hülle-2" data-name="Hülle">
      <g>
        <path class="cls-1" d="m83.51,51.99c3.01-1.94,3.82-2.96,4.19-3.18,1.3-.76.26,2.99-.41,4.87-.5,1.41-1.38,3.3-2.35,3.83-1.96,1.07,1.23-3.93-3.51-1.43-2.77,1.46-3.07,2-5.41,6.8-1.18,2.42-1.05,2.55.85,1.95,2.36-.74,2.59-4.98,4.45-5.87,1.52-.73-.13,4.24-.67,6.03-.57,1.89-2.19,7.72-4.11,8.3-1.98.6,1.65-4.79-1.85-4.01-1.45.32-2.13,1.97-2.67,3.41-2.46,6.59-1.38,6.65,2.34,5.86,7.26-1.56,6.19-8.36,8.33-9.6.83-.48.85.96.57,2.31-.69,3.27-3.12,10.31-4.24,10.9-.2.1-.65.17-1.22.31-.61.15-1.45.38-2.6.69-5.53,1.54-10.65,1.18-15.3-.83-1.87-.81-1.28-2.03-1.04-2.52,1.03-2.05,1.94.3,4.26-3.78,3.98-7.01,3.58-6.54,7.98-12.6,3.74-5.14.11-1.57,2.14-3.57,1.75-1.72,3.17-2.82,4.01-3.48,2.38-1.86,3.67-2.74,6.25-4.41Z"/>
        <path class="cls-1" d="m101,51.69c.24.3.91,1.21,1.47,1.08.79-.19,1.22-1.85,1.39-2.52.25-1,.66-2.68.68-3.51.04-1.52-1.6-.56-.91-2.59.81-2.41,3.45-3.01,4.56-3.27,1.17-.27,4.11-1.06,3.75,1.62-.3,2.21-1.76,1.61-2.6,3.48-.65,1.46-1.08,3.94-1.32,5.5-.65,4.23-.92,6.44-1.36,10.99-.19,1.98-.48,8.08-3.45,8.35-.89.08-1.55-.37-2.09-.86-4.43-4.24-5.59-5.8-7.65-9.08-.23-.39-.63-1.11-1.17-.84-.8.4-1.57,3.3-1.8,4.25-.31,1.26-.67,2.94-.78,4.05-.26,2.74,1.37.85.93,3.14-.6,3.13-3.28,5.06-4.36,5.81-1.06.74-3.56,2.24-3.01-.96.45-2.61,1.79-2.66,2.63-5.83.57-2.13,1.28-5.08,1.8-7.12.82-3.26,1.76-6.46,2.49-9.38,1.01-4.03-1.31-1.43-.37-3.92,1.1-2.94,4.28-4.34,5.38-4.83,1.51-.67,1.71-.62,2.23.48,1.11,2.28,1.71,3.42,3.57,5.96Z"/>
        <path class="cls-1" d="m126.38,39.43c1.2.02,1.79-.13,2.17-.28.38-.15.62-.32,1.14-.3,1.08.06,3.21,4.32,3.13,10.32-.04,2.78-.77,4.44-2.18,4.01-2.42-.73-2.25-6.8-3.63-6.99-1.06-.15-.96,2.57-.95,2.97.01,6.19.05,9.39.22,16,.16,6.41,2.31,4.52,2.39,8.52.04,1.77.16,3.89-4.94,1.07-1.39-.77-7.58-2.96-7.7-6.66-.08-2.54,2.1-1,2.68-2.67.29-.93.32-3.81.32-5,0-4.21.01-6.27.1-10.27.11-4.76-.47-4.68-.87-4.68-1.3-.02-2.04,5.01-4.67,5-1.27,0-1.92-1.46-1.78-2.92.34-3.45,2.85-8.04,4.4-8.24.19-.02.5.08,1,.17.49.08,1.25.16,2.36.09,2.72-.18,4.09-.21,6.83-.16Z"/>
        <path class="cls-1" d="m135.28,51.87c.09-8.92-2.04-5.63-1.97-9,.06-3,2.2-3.11,3.29-2.95.57.08,1.15.26,1.68.43.52.17,1.11.42,1.65.52.87.16,1.76.19,2.61.29.83.1,1.73.22,2.57.42,2.98.74,6.7,4.22,7.67,11.03.44,3.07.12,6.13-1.25,7.71-.22.29-.39.47-.31,1.14.1.84.49,1.04.86,1.28,2.12,1.23,3.24,3.41,4.35,9.02.95,4.83,2.31.94,2.71,4.07.25,1.95-.61,5.12-3.78,6.8-4.49,2.38-6.3-3.73-8.05-11.73-.62-2.79-1.39-5.47-3.49-5.63-.84-.06-1.12.06-.98,3.95.06,1.79.23,4.29.5,6.06.44,2.9,2.6,2.07,2.79,5.09.14,2.27-1.89,4.73-7.35,3.23-1.62-.45-5.61-2.57-5.64-7.01-.02-3.16,2.05,0,2.06-7.87,0-6.91.03-10.28.1-16.84Zm6.94,3.99c-.01,1.54-.16,2.85.99,2.98,2.28.25,2.79-1.89,2.5-5.48-.23-2.84-.79-5.74-2.53-6.03-1.11-.19-1.02,1.15-1.02,2.95.03,2.21.04,3.33.06,5.59Z"/>
        <path class="cls-1" d="m162.17,60.2c.27-2.86.62-5.99-.05-8.83-.58-2.48-.27-3.91,1.78-2.74,2,1.15,4.28,4.32,6.15,6.43.82.92,10.2,9.7,12.72,11.88,2.33,2.02,3.34,1.21,4.3,2.55,1.24,1.71-4.04,1.26-6.33,1.38-6.56.36-9.05,1.64-9.52-.5-.36-1.65,1.84-1.48,1.53-2.6-.4-1.43-1.64-1.69-6.12-.46-1.45.4-2.2.75-1.9,2.79.25,1.62,1.8-.16,2.13,1.91.37,2.38-2.5,4.08-3.46,4.71-3.41,2.25-3.81,1.14-4.03-.49-.31-2.4,1.1-2.48,1.53-4.5.32-1.52.51-3.91.66-5.43.24-2.61.36-3.83.59-6.1Zm6.13,2.29c.29-.02,1.19.01,1.06-.47-.13-.48-1.44-2.18-1.78-2.65-.39-.54-1.17-1.81-1.75-1.88-.63-.07-.59,2.04-.61,2.44-.02.4-.18,1.87-.09,2.32.12.64.77.45,1.07.41.82-.09,1.24-.12,2.1-.17Z"/>
      </g>
    </g>
    <g id="Hülle-3" data-name="Hülle">
      <g>
        <path class="cls-1" d="m38.33,119.88c.39-6.95,4.79-15.34,12.99-14.03,2.62.42,5.64,2.62,6.38,2.62.69,0,1.66-1.03,2.75-1.07,1.76-.07,4.16,5.07,3.54,11.34-.25,2.54-1.32,5.32-3.06,5.54-3.16.4-4.98-8.06-9.57-8.57-1.37-.15-2.89.65-3.15,3.38-.57,6,6.04,5.45,11.6,10.71,2.97,2.8,4.07,6.28,4.64,11.76.81,7.74-1.25,20.32-11.17,19.01-2.53-.33-6.7-3.25-9.16-6.51-2.1-2.79-4.83-10.96-5.44-14.72-.32-1.99.16-3.8.78-3.25,3.52,3.15,4.2,13.27,10.46,15.04.79.22,3.05-.33,2.55-3.16-.94-5.37-6.64-4.86-10.91-13.21-2.12-4.13-3.54-9.5-3.24-14.89Z"/>
        <path class="cls-1" d="m81.69,100.33c3.54-2.37,4.13-4.14,4.61-4.48,1.7-1.23,1.4,5.33,1.08,8.54-.24,2.4-.87,5.49-2.12,6.25-2.52,1.54.22-6.57-4.98-3.21-3.03,1.96-3.29,3.12-3.98,11.53-.35,4.24-.19,4.36,1.53,3.29,2.15-1.34,1.22-8.46,3.15-9.71,1.58-1.02,1.07,7.19.99,10.05-.09,3.01-.17,11.85-1.86,12.9-1.75,1.09-.12-7.62-2.95-5.84-1.18.74-1.15,3.49-1.08,5.81.34,10.58.85,9.78,3.74,7.93,5.64-3.61,3.66-12.75,6.47-14.1,1.1-.53,1.77,1.89,1.88,3.94.27,4.96-.73,14.37-2.04,14.99-.23.11-.82.12-1.46.28-.67.17-1.57.48-2.53,1.07-4.65,2.84-6.31,4.86-11.38,7.58-2.04,1.09-2.62-1.11-2.8-2.04-.8-3.94,1.79-1.77,1.22-9.56-.62-8.43-.69-17.18-.13-25.66.75-11.23-2.8-4.52-1.9-9.71.77-4.46,4.13-4.61,5.62-5.17,4.19-1.57,5.85-2.65,8.9-4.69Z"/>
        <path class="cls-1" d="m110.26,134.66c1.35.4,2.46-1.39,2.25-4.11-.47-6.26-4.73-.94-5.12-7.97-.31-5.57,6.19-4.67,8.02-3.95,6.73,2.66,6.81,7.4,6.97,9.59.14,1.96-.49,2.94-1.17,2.78-.77-.18-.85.11-.92,1.95.34,6.73-3.6,13.41-11.04,12.16-13.02-2.2-20.44-12-20.24-25.28.15-9.63,4.18-30.61,17.67-29.52,3.94.32,5.44,3.08,6.33,3.42.62.23,1.46-.49,2.03-.21,1.96.97,3.3,9.22,3.49,13.03.18,3.66-.37,6.97-2.19,6.13-3.35-1.55-3.15-12.38-9.39-13.07-3.99-.44-7.08,5.46-7.1,13.35-.02,7.46,3.35,19.6,10.44,21.7Z"/>
        <path class="cls-1" d="m142.23,119.72c-.59-8.06-4.08-5.74-4.48-10.02-.43-4.57,4.59-3.38,6.61-3.22,1.88.15,7.71-.02,8.16,4.22.43,4.09-3.66,1.73-3.12,8.54.56,6.8.9,13.66,1,20.48.22,6.78-4.81,24.04-14.22,18.55-8.98-5.23-10.97-19.66-11.38-29.82-.48-6.97-.72-10.5-1.17-17.36-.2-4.61-2-5.82-2.18-9.18-.05-1.02-.91-5.22,4.72-1.61,4.46,2.86,6.21,5.4,6.46,8.28.48,5.3-2.34-.87-1.81,8.19.42,5.51.62,8.33.98,13.92.26,6.09,1.11,14.42,5.73,17.2,4.26,2.56,5.68-8.33,5.66-9.17-.17-6.33-.5-12.67-.97-18.98Z"/>
        <path class="cls-1" d="m158.22,121.84c-.59-11.54-3.82-6.17-4.28-10.7-.41-4.02,3.1-5.02,4.75-5.43.87-.22,1.71-.35,2.48-.49.74-.14,1.57-.24,2.27-.53,1.13-.45,2.2-1.13,3.21-1.76.96-.6,1.97-1.29,2.87-1.84,3.2-1.96,7.28-1,7.93,8.62.29,4.34-.6,9.16-2.2,12.12-.26.52-.46.87-.48,1.75-.03,1.1.32,1.17.65,1.33,1.92.7,3.07,3.56,2.54,11.21-.45,6.59,2.37,1.52,1.57,5.94-.5,2.75-2.98,6.16-6.34,8.04-4.76,2.68-3.4-3.29-3.37-12.37.01-3.16-.19-6.24-1.96-5.18-.71.43-.92.81-1.24,5.45-.14,2.13-.33,5.02-.4,6.95-.11,3.17,1.56,1.13,1.04,4.55-.38,2.56-1.33,5.36-6.23,8.14-1.45.83-6.39,2.55-6.09-2.81.21-3.82,3.14-1.85,3.45-11.56.13-7.18.06-14.25-.2-21.43Zm8.69-.02c-.03,1.94-.2,3.67.88,3.06,2.12-1.2,2.66-4.19,2.5-8.67-.12-3.55-.66-6.91-2.51-5.91-1.18.64-1.04,2.25-.98,4.53.09,2.78.11,4.18.11,6.99Z"/>
        <path class="cls-1" d="m182.69,119.76c-.09-7.79.16-30.99,13.09-29.5,12.28,1.41,17.84,21.74,18.33,32.11.51,10.7-5.29,23.21-17.38,22.52-13.46-.77-13.94-14.9-14.05-25.13Zm13.36-18.69c-2.33-.47-3.53,4.49-3.14,8.13.74,6.8,2.61,22.79,8.03,24.83,1.93.73,4.17-3.38,4.36-7.46.34-7.55-2.1-24.05-9.25-25.5Z"/>
      </g>
    </g>
  </g>
</svg>